<mxfile host="65bd71144e">
    <diagram id="3FreOoaA5t78-N_kzYsi" name="Page-1">
        <mxGraphModel dx="1193" dy="749" grid="1" gridSize="10" guides="1" tooltips="1" connect="1" arrows="1" fold="1" page="1" pageScale="1" pageWidth="850" pageHeight="1100" background="#000000" math="0" shadow="1">
            <root>
                <mxCell id="0"/>
                <mxCell id="1" parent="0"/>
                <mxCell id="2" value="" style="endArrow=none;html=1;" edge="1" parent="1">
                    <mxGeometry width="50" height="50" relative="1" as="geometry">
                        <mxPoint x="425" y="620" as="sourcePoint"/>
                        <mxPoint x="595" y="520" as="targetPoint"/>
                        <Array as="points">
                            <mxPoint x="245" y="580"/>
                            <mxPoint x="355" y="530"/>
                            <mxPoint x="405" y="610"/>
                            <mxPoint x="465" y="680"/>
                            <mxPoint x="485" y="590"/>
                            <mxPoint x="605" y="520"/>
                            <mxPoint x="505" y="500"/>
                            <mxPoint x="535" y="520"/>
                            <mxPoint x="395" y="560"/>
                            <mxPoint x="275" y="730"/>
                            <mxPoint x="325" y="660"/>
                            <mxPoint x="365" y="530"/>
                            <mxPoint x="465" y="540"/>
                            <mxPoint x="255" y="580"/>
                            <mxPoint x="335" y="660"/>
                            <mxPoint x="545" y="520"/>
                            <mxPoint x="495" y="590"/>
                            <mxPoint x="455" y="680"/>
                            <mxPoint x="415" y="620"/>
                            <mxPoint x="455" y="540"/>
                            <mxPoint x="385" y="560"/>
                            <mxPoint x="515" y="500"/>
                        </Array>
                    </mxGeometry>
                </mxCell>
                <mxCell id="3" value="Text" style="edgeLabel;html=1;align=center;verticalAlign=middle;resizable=0;points=[];" vertex="1" connectable="0" parent="2">
                    <mxGeometry x="0.7276" y="1" relative="1" as="geometry">
                        <mxPoint as="offset"/>
                    </mxGeometry>
                </mxCell>
                <mxCell id="6" value="Text" style="edgeLabel;html=1;align=center;verticalAlign=middle;resizable=0;points=[];" vertex="1" connectable="0" parent="2">
                    <mxGeometry x="-0.1984" y="-1" relative="1" as="geometry">
                        <mxPoint as="offset"/>
                    </mxGeometry>
                </mxCell>
                <mxCell id="4" value="" style="rounded=1;whiteSpace=wrap;html=1;rotation=-117;" vertex="1" parent="1">
                    <mxGeometry x="526.88" y="664.99" width="180" height="30.27" as="geometry"/>
                </mxCell>
                <mxCell id="8" value="" style="edgeStyle=none;html=1;" edge="1" parent="1" source="5" target="4">
                    <mxGeometry relative="1" as="geometry">
                        <mxPoint x="700" y="820" as="targetPoint"/>
                    </mxGeometry>
                </mxCell>
                <mxCell id="5" value="Text" style="text;html=1;align=center;verticalAlign=middle;resizable=0;points=[];autosize=1;strokeColor=none;fillColor=none;" vertex="1" parent="1">
                    <mxGeometry x="620" y="720" width="40" height="20" as="geometry"/>
                </mxCell>
                <mxCell id="7" style="edgeStyle=none;html=1;exitX=0;exitY=0.5;exitDx=0;exitDy=0;" edge="1" parent="1" source="4">
                    <mxGeometry relative="1" as="geometry">
                        <mxPoint x="720" y="740" as="targetPoint"/>
                    </mxGeometry>
                </mxCell>
            </root>
        </mxGraphModel>
    </diagram>
</mxfile>